<svg width="96" height="96" viewBox="0 0 96 96" fill="none" xmlns="http://www.w3.org/2000/svg">
<path d="M96 48C96 74.5097 74.5097 96 48 96C21.4903 96 0 74.5097 0 48C0 21.4903 21.4903 0 48 0C74.5097 0 96 21.4903 96 48Z" fill="white"/>
<path d="M52.4072 24.8508C52.9239 24.0646 53.5221 23.3351 54.1919 22.6744C56.7423 20.1277 60.1992 18.6973 63.8034 18.6973C67.4076 18.6973 70.8645 20.1277 73.4149 22.6744C75.9599 25.2246 77.3893 28.6803 77.3893 32.2832C77.3893 35.8861 75.9599 39.3418 73.4149 41.892C72.7391 42.5711 71.9931 43.1767 71.1895 43.6984C70.0833 44.4157 68.503 44.9442 66.6961 45.3315V35.3203C66.6961 32.0066 64.0098 29.3203 60.6961 29.3203H50.7734C51.162 27.5212 51.691 25.9497 52.4072 24.8508Z" fill="black"/>
<path d="M60.6961 66.682H50.8203C51.2006 68.3689 51.7096 69.8409 52.3875 70.8881C52.9113 71.6902 53.5167 72.4359 54.1939 73.1134C56.7443 75.6602 60.2012 77.0906 63.8054 77.0906C67.4097 77.0906 70.8665 75.6602 73.4169 73.1134L73.406 73.1025C75.9528 70.5521 77.3832 67.0953 77.3832 63.491C77.3832 59.8868 75.9528 56.43 73.406 53.8796C72.7352 53.2101 71.9967 52.612 71.2025 52.0949C70.096 51.374 68.5103 50.8435 66.6961 50.4551V60.682C66.6961 63.9957 64.0098 66.682 60.6961 66.682Z" fill="black"/>
<path d="M29.335 60.6816V50.6221C27.4462 51.0129 25.7917 51.5534 24.6466 52.2967C23.841 52.8156 23.0947 53.4214 22.4212 54.1031C19.8762 56.6533 18.4468 60.109 18.4468 63.7119C18.4468 67.3148 19.8762 70.7705 22.4212 73.3207C24.9714 75.8657 28.4271 77.2951 32.03 77.2951C35.6329 77.2951 39.0886 75.8657 41.6388 73.3207C42.3083 72.6598 42.9065 71.9303 43.4234 71.1443C44.1391 70.0475 44.668 68.4785 45.0568 66.6816H35.335C32.0213 66.6816 29.335 63.9953 29.335 60.6816Z" fill="black"/>
<path d="M24.5976 43.9068C25.7508 44.6581 27.4245 45.2027 29.335 45.595V35.3203C29.335 32.0066 32.0213 29.3203 35.335 29.3203H44.9825C44.6017 27.6326 44.0919 26.1603 43.4125 25.1137C42.8888 24.3116 42.2834 23.5658 41.6061 22.8883C39.0557 20.3416 35.5989 18.9111 31.9946 18.9111C28.3904 18.9111 24.9335 20.3416 22.3831 22.8883L22.4212 22.8992C19.8762 25.4494 18.4468 28.9051 18.4468 32.508C18.4468 36.1108 19.8762 39.5666 22.4212 42.1167C23.082 42.788 23.8115 43.388 24.5976 43.9068Z" fill="black"/>
<path d="M61.0316 43.4971H34.998V52.4971H61.0316V43.4971Z" fill="black"/>
</svg>
